<?xml version="1.0" encoding="UTF-8"?>
<!DOCTYPE svg PUBLIC "-//W3C//DTD SVG 1.1//EN" "http://www.w3.org/Graphics/SVG/1.1/DTD/svg11.dtd">
<!-- Creator: CorelDRAW 2020 -->
<svg xmlns="http://www.w3.org/2000/svg" xml:space="preserve" width="25.4mm" height="25.4mm" version="1.1" style="shape-rendering:geometricPrecision; text-rendering:geometricPrecision; image-rendering:optimizeQuality; fill-rule:evenodd; clip-rule:evenodd"
viewBox="0 0 1599.09 1599.09"
 xmlns:xlink="http://www.w3.org/1999/xlink"
 xmlns:xodm="http://www.corel.com/coreldraw/odm/2003">
 <defs>
  <style type="text/css">
   <![CDATA[
    .fil0 {fill:#E00007}
    .fil1 {fill:#FEFEFE;fill-rule:nonzero}
   ]]>
  </style>
 </defs>
 <g id="Layer_x0020_1">
  <metadata id="CorelCorpID_0Corel-Layer"/>
  <path class="fil0" d="M799.55 0c441.58,0 799.55,357.97 799.55,799.55 0,441.58 -357.97,799.55 -799.55,799.55 -441.58,0 -799.55,-357.97 -799.55,-799.55 0,-441.58 357.97,-799.55 799.55,-799.55z"/>
  <g id="_1109209512">
   <path class="fil1" d="M311.73 1131.77c-35.82,-230.84 -43.13,-432.89 -8.47,-664.79 9.83,102.53 98.95,266.95 189.12,314.99l0 -210.69c24.19,11.07 39.28,16.39 65.8,20.03 0,107.08 0,214.15 0,321.22 -76.88,-36.87 -147.7,-87.99 -207.56,-148.61 0,0 -0.82,217.43 23.75,307.02 -20.2,21.69 -40.31,41.33 -62.65,60.83z"/>
   <path class="fil1" d="M1201.76 778.93c15.63,-9.83 27.05,-17.87 42.36,-28.17 -7.82,61.53 -17.19,120.3 -29.98,181 -19,-80.03 -43.27,-161.16 -81.09,-234.46 -19,16.83 -38,30.65 -56.93,41.1 21.53,45.46 47.28,93.55 69.11,151.76 25.45,67.87 43.49,149.43 57.86,239.51 1.25,0.85 2.5,1.61 3.75,2.46 84.62,-211.93 104.73,-423.63 111.51,-649.72 -19.75,18.66 -39.44,39.64 -59.12,62.43 -0.89,31.23 -2.37,63.01 -4.4,94.64 -19.44,19.45 -52.05,52.6 -71.94,71.58l18.86 67.87z"/>
   <path class="fil1" d="M608.62 901.96c0,-50.89 0,-101.83 0,-152.72 0,-50.89 0,-101.86 0,-152.8 59.92,12.06 120.79,15.08 185.02,9.97 0,16.86 0,33.73 0,50.56 -38.47,0.27 -76.95,0.7 -115.42,1.25 0,16.52 0,33.05 0,49.55 32.91,-2.51 65.87,-4.5 98.84,-5.99 0,16.92 0,33.81 0,50.68 -32.97,2.84 -65.93,6.66 -98.84,11.45 0,18.09 0,36.15 0,54.21 39,-8.16 78.06,-14.39 117.11,-18.39 0,17.17 0,34.34 0,51.47 -70.85,3.51 -120.73,18.4 -186.71,50.74zm322.81 -250.91c-3.96,-0.01 -7.93,-0.06 -11.84,-0.06 0,11.4 0,22.76 0,34.13 0,11.36 0,22.73 0,34.08 5.02,0.25 10.11,0.42 15.17,0.71 18.08,1.05 31.92,-1.12 41.43,-6.69 9.58,-5.61 14.31,-14.49 14.31,-26.4 0,-12.52 -4.58,-21.66 -13.87,-27.34 -9.27,-5.67 -24.36,-8.38 -45.2,-8.43zm-81.43 197.12c0,-40.17 0,-80.38 0,-120.56 0,-40.17 0,-80.4 0,-120.61 25.71,-0.15 51.47,-0.42 77.23,-1.1 24.8,-0.65 43.94,-0.1 57.61,2.12 13.64,2.2 25.69,6.44 36.2,12.95 11.19,6.93 19.89,15.94 26.01,26.98 6.21,11.23 9.22,23.19 9.22,35.68 0,18.12 -4.73,33.48 -14.44,45.67 -9.51,11.94 -23.5,20.2 -41.58,24.87 15.27,21.59 30.79,43.85 45.82,67.77 15.5,24.63 30.55,51.17 45.88,78.7 -27.32,-11.25 -54.63,-21.14 -81.93,-29.63 -13.39,-21.02 -26.61,-41.23 -40.17,-60.53 -13.11,-18.64 -26.73,-36.56 -40.07,-54.01 -3.44,-0.25 -6.82,-0.48 -10.21,-0.73 0,16.12 0,32.26 0,48.39 0,16.1 0,32.2 0,48.31 -23.2,-2.32 -46.4,-3.76 -69.59,-4.25z"/>
  </g>
 </g>
</svg>
